<svg width="32" height="32" viewBox="0 0 32 32" fill="none" xmlns="http://www.w3.org/2000/svg">
<g clip-path="url(#clip0_1_102)">
<path d="M2.56371 13.955C2.73026 14.0216 2.92341 14.0216 3.08996 13.9417L8.29236 11.577C8.6254 11.4171 8.76528 11.0174 8.60542 10.6844C8.45223 10.3647 8.07254 10.2181 7.74612 10.3647L4.10244 12.0233C5.84101 6.82089 10.6837 3.34375 16.2591 3.34375C22.101 3.34375 27.2101 7.24722 28.6822 12.8359C28.7754 13.189 29.1418 13.4021 29.4948 13.3089C29.8478 13.2156 30.061 12.8492 29.9677 12.4962C28.3424 6.32798 22.707 2.01154 16.259 2.01154C10.1108 2.01154 4.76183 5.84837 2.83011 11.5903L1.29806 7.76017C1.18484 7.41377 0.805158 7.22062 0.458756 7.33384C0.112354 7.44706 -0.0807995 7.82674 0.0324197 8.17315C0.0391017 8.19981 0.0524032 8.22641 0.0657048 8.25308L2.19064 13.582C2.25727 13.7486 2.39048 13.8884 2.56371 13.955Z" fill="black"/>
<path d="M31.9595 23.7869C31.9528 23.7736 31.9462 23.7602 31.9462 23.7469L29.8213 18.418C29.7546 18.2515 29.6214 18.1116 29.4483 18.045C29.2817 17.9784 29.0886 17.9851 28.922 18.0583L23.7196 20.423C23.3799 20.5629 23.22 20.9559 23.3599 21.2956C23.4998 21.6354 23.8928 21.7952 24.2325 21.6553C24.2458 21.6487 24.2592 21.642 24.2725 21.6354L27.9162 19.9767C26.1643 25.1791 21.3149 28.6563 15.7462 28.6563C9.90432 28.6563 4.79522 24.7528 3.32312 19.1641C3.22988 18.8111 2.8635 18.5979 2.51048 18.6912C2.15745 18.7844 1.94425 19.1508 2.03755 19.5038C3.65622 25.6787 9.29826 29.9885 15.7463 29.9885C21.8945 29.9885 27.2368 26.1516 29.1752 20.4097L30.7072 24.2398C30.8338 24.5862 31.2135 24.7661 31.5598 24.6395C31.9062 24.513 32.086 24.1333 31.9595 23.7869Z" fill="black"/>
</g>
<defs>
<clipPath id="clip0_1_102">
<rect width="32" height="32" fill="white"/>
</clipPath>
</defs>
</svg>
